<svg xmlns="http://www.w3.org/2000/svg" xmlns:xlink="http://www.w3.org/1999/xlink" width="1456" zoomAndPan="magnify" viewBox="0 0 1092 1163.999943" height="1552" preserveAspectRatio="xMidYMid meet" version="1.0"><defs><clipPath id="b7af8bca8c"><path d="M 516.121094 651.0625 L 582 651.0625 L 582 717.042969 L 516.121094 717.042969 Z M 516.121094 651.0625 " clip-rule="nonzero"/></clipPath><clipPath id="13c90024dd"><path d="M 720 437 L 790.824219 437 L 790.824219 462 L 720 462 Z M 720 437 " clip-rule="nonzero"/></clipPath><clipPath id="7d84b6057c"><path d="M 301.074219 438 L 372 438 L 372 463 L 301.074219 463 Z M 301.074219 438 " clip-rule="nonzero"/></clipPath><clipPath id="ce6ce4a4db"><path d="M 537 203.3125 L 561 203.3125 L 561 274 L 537 274 Z M 537 203.3125 " clip-rule="nonzero"/></clipPath></defs><path fill="#ecc10c" d="M 673.039062 448.324219 C 673.039062 378.421875 617.496094 321.753906 548.988281 321.753906 C 480.472656 321.753906 424.933594 378.421875 424.933594 448.324219 C 424.933594 487.351562 442.242188 522.238281 469.445312 545.457031 C 476.101562 558.875 482.75 575.160156 484.6875 589.679688 C 488.925781 621.492188 548.988281 617.957031 548.988281 617.957031 C 548.988281 617.957031 609.042969 621.492188 613.277344 589.679688 C 615.214844 575.160156 621.871094 558.875 628.523438 545.457031 C 655.730469 522.238281 673.039062 487.34375 673.039062 448.324219 " fill-opacity="1" fill-rule="nonzero"/><path fill="#f29211" d="M 593.847656 522.257812 C 584.390625 522.257812 576.738281 514.597656 576.738281 505.140625 C 576.738281 495.683594 584.390625 488.019531 593.847656 488.019531 C 603.300781 488.019531 610.957031 495.683594 610.957031 505.140625 C 610.957031 514.597656 603.300781 522.257812 593.847656 522.257812 Z M 574.890625 522.457031 L 575.433594 516.980469 C 576.789062 519.082031 578.492188 520.933594 580.464844 522.457031 Z M 517.507812 522.457031 C 519.40625 520.988281 521.058594 519.226562 522.390625 517.21875 L 522.910156 522.457031 Z M 487.011719 505.140625 C 487.011719 495.683594 494.671875 488.019531 504.121094 488.019531 C 513.578125 488.019531 521.234375 495.683594 521.234375 505.140625 C 521.234375 514.597656 513.578125 522.257812 504.121094 522.257812 C 494.671875 522.257812 487.011719 514.597656 487.011719 505.140625 Z M 593.847656 483.226562 C 581.753906 483.226562 571.945312 493.039062 571.945312 505.140625 C 571.945312 505.265625 571.960938 505.386719 571.964844 505.507812 L 570.273438 522.457031 L 527.523438 522.457031 L 525.949219 506.632812 C 525.980469 506.140625 526.023438 505.644531 526.023438 505.140625 C 526.023438 493.039062 516.21875 483.226562 504.121094 483.226562 C 492.027344 483.226562 482.222656 493.039062 482.222656 505.140625 C 482.222656 517.242188 492.027344 527.054688 504.121094 527.054688 L 523.367188 527.054688 L 532.4375 618.070312 L 537.007812 617.617188 L 527.984375 527.054688 L 569.816406 527.054688 L 560.792969 617.617188 L 565.367188 618.070312 L 574.433594 527.054688 L 590.316406 527.054688 L 590.316406 526.742188 C 591.46875 526.933594 592.640625 527.054688 593.847656 527.054688 C 605.941406 527.054688 615.746094 517.242188 615.746094 505.140625 C 615.746094 493.039062 605.941406 483.226562 593.847656 483.226562 " fill-opacity="1" fill-rule="nonzero"/><g clip-path="url(#b7af8bca8c)"><path fill="#32435b" d="M 581.847656 683.875 C 582.003906 702.027344 567.417969 716.886719 549.273438 717.042969 C 531.125 717.199219 516.285156 702.609375 516.125 684.453125 C 515.964844 666.296875 530.550781 651.449219 548.699219 651.289062 C 566.84375 651.128906 581.6875 665.722656 581.847656 683.875 " fill-opacity="1" fill-rule="nonzero"/></g><path fill="#bdc2c5" d="M 600.554688 609.589844 L 600.554688 682.042969 C 600.554688 691.019531 593.28125 698.300781 584.308594 698.300781 L 513.660156 698.300781 C 504.6875 698.300781 497.410156 691.019531 497.410156 682.042969 L 497.410156 609.589844 L 600.554688 609.589844 " fill-opacity="1" fill-rule="nonzero"/><path fill="#eff4f4" d="M 587.707031 667.539062 L 510.261719 667.539062 C 500.421875 667.539062 492.445312 671.183594 492.445312 675.671875 C 492.445312 680.019531 499.929688 683.574219 509.347656 683.792969 C 509.636719 683.792969 509.949219 683.804688 510.261719 683.804688 L 587.707031 683.804688 C 588.019531 683.804688 588.328125 683.792969 588.625 683.792969 C 598.039062 683.574219 605.523438 680.019531 605.523438 675.671875 C 605.523438 671.183594 597.546875 667.539062 587.707031 667.539062 " fill-opacity="1" fill-rule="nonzero"/><path fill="#eff4f4" d="M 587.707031 645.371094 L 510.261719 645.371094 C 500.421875 645.371094 492.445312 649.011719 492.445312 653.5 C 492.445312 657.847656 499.929688 661.402344 509.347656 661.621094 C 509.636719 661.621094 509.949219 661.628906 510.261719 661.628906 L 587.707031 661.628906 C 588.019531 661.628906 588.328125 661.621094 588.625 661.621094 C 598.039062 661.402344 605.523438 657.847656 605.523438 653.5 C 605.523438 649.011719 597.546875 645.371094 587.707031 645.371094 " fill-opacity="1" fill-rule="nonzero"/><path fill="#eff4f4" d="M 587.707031 623.199219 L 510.261719 623.199219 C 500.421875 623.199219 492.445312 626.839844 492.445312 631.328125 C 492.445312 635.675781 499.929688 639.234375 509.347656 639.449219 C 509.636719 639.449219 509.949219 639.457031 510.261719 639.457031 L 587.707031 639.457031 C 588.019531 639.457031 588.328125 639.449219 588.625 639.449219 C 598.039062 639.234375 605.523438 635.675781 605.523438 631.328125 C 605.523438 626.839844 597.546875 623.199219 587.707031 623.199219 " fill-opacity="1" fill-rule="nonzero"/><path fill="#ecc10c" d="M 721.8125 605.511719 L 691.472656 573.824219 C 687.621094 569.796875 680.839844 570.035156 676.332031 574.355469 C 671.96875 578.539062 671.324219 585.019531 674.792969 589.085938 C 674.910156 589.207031 675.023438 589.339844 675.144531 589.464844 L 705.484375 621.160156 C 705.605469 621.285156 705.730469 621.40625 705.847656 621.527344 C 709.753906 625.167969 716.257812 624.808594 720.621094 620.625 C 725.132812 616.304688 725.664062 609.539062 721.8125 605.511719 " fill-opacity="1" fill-rule="nonzero"/><g clip-path="url(#13c90024dd)"><path fill="#ecc10c" d="M 778.96875 437.5 L 730.84375 439.199219 C 724.730469 439.414062 719.949219 444.652344 720.171875 450.890625 C 720.386719 456.9375 725.210938 461.71875 731.070312 461.816406 C 731.253906 461.808594 731.449219 461.8125 731.640625 461.800781 L 779.769531 460.101562 C 779.964844 460.097656 780.15625 460.078125 780.339844 460.070312 C 786.183594 459.5625 790.65625 454.453125 790.441406 448.410156 C 790.21875 442.167969 785.082031 437.28125 778.96875 437.5 " fill-opacity="1" fill-rule="nonzero"/></g><path fill="#ecc10c" d="M 704.386719 276.613281 L 668.84375 309.128906 C 664.332031 313.257812 664.082031 320.339844 668.296875 324.949219 C 672.375 329.410156 679.144531 329.925781 683.667969 326.195312 C 683.804688 326.070312 683.957031 325.949219 684.101562 325.820312 L 719.640625 293.304688 C 719.785156 293.171875 719.921875 293.035156 720.054688 292.914062 C 724.171875 288.734375 724.269531 281.941406 720.1875 277.480469 C 715.976562 272.871094 708.902344 272.480469 704.386719 276.613281 " fill-opacity="1" fill-rule="nonzero"/><path fill="#ecc10c" d="M 370.089844 606.277344 L 400.425781 574.582031 C 404.28125 570.558594 411.0625 570.796875 415.566406 575.117188 C 419.933594 579.300781 420.574219 585.78125 417.105469 589.847656 C 416.984375 589.96875 416.875 590.101562 416.753906 590.230469 L 386.417969 621.917969 C 386.296875 622.046875 386.167969 622.167969 386.050781 622.289062 C 382.144531 625.929688 375.640625 625.574219 371.277344 621.386719 C 366.769531 617.066406 366.238281 610.296875 370.089844 606.277344 " fill-opacity="1" fill-rule="nonzero"/><g clip-path="url(#7d84b6057c)"><path fill="#ecc10c" d="M 312.925781 438.257812 L 361.058594 439.960938 C 367.167969 440.175781 371.945312 445.414062 371.726562 451.652344 C 371.511719 457.699219 366.691406 462.476562 360.824219 462.574219 C 360.640625 462.570312 360.453125 462.574219 360.257812 462.566406 L 312.128906 460.863281 C 311.933594 460.855469 311.742188 460.839844 311.5625 460.835938 C 305.71875 460.320312 301.242188 455.214844 301.457031 449.171875 C 301.675781 442.929688 306.8125 438.042969 312.925781 438.257812 " fill-opacity="1" fill-rule="nonzero"/></g><path fill="#ecc10c" d="M 387.511719 277.375 L 423.058594 309.886719 C 427.574219 314.015625 427.816406 321.101562 423.605469 325.710938 C 419.523438 330.175781 412.753906 330.683594 408.226562 326.957031 C 408.089844 326.832031 407.941406 326.710938 407.800781 326.582031 L 372.257812 294.066406 C 372.117188 293.9375 371.980469 293.800781 371.847656 293.675781 C 367.730469 289.5 367.628906 282.707031 371.710938 278.242188 C 375.921875 273.632812 383 273.242188 387.511719 277.375 " fill-opacity="1" fill-rule="nonzero"/><g clip-path="url(#ce6ce4a4db)"><path fill="#ecc10c" d="M 537.300781 214.671875 L 538.0625 262.851562 C 538.164062 268.96875 543.300781 273.847656 549.542969 273.75 C 555.585938 273.65625 560.457031 268.921875 560.667969 263.058594 C 560.667969 262.875 560.671875 262.683594 560.667969 262.492188 L 559.90625 214.308594 C 559.902344 214.121094 559.890625 213.929688 559.886719 213.742188 C 559.488281 207.890625 554.472656 203.316406 548.429688 203.410156 C 542.1875 203.511719 537.203125 208.550781 537.300781 214.671875 " fill-opacity="1" fill-rule="nonzero"/></g></svg>